# xmcd
#
# Track frame offsets:
# 150
# 21325
# 42730
# 63615
#
# Disc length: 1129 seconds
#
# Revision: 0
# Processed by: cddbd v1.4PL0 Copyright (c) Steve Scherf et al.
# Submitted via: MacMP3 Pro 5.0 (http://mp3.act2.co.jp/)
#
DISCID=38046704
DTITLE=ÍDÏcÛTÏ“ - Love Somebady
DYEAR=1900
DGENRE=
TTITLE0=Love Somebady With Maxi Priest (Original Version)
TTITLE1=Love Somebady (Cinema Version)
TTITLE2=Love Somebady With Maxi Priest (Original Version)
TTITLE3=Love Somebady (Cinema Version)
EXTD=
EXTT0=
EXTT1=
EXTT2=
EXTT3=
PLAYORDER=
